<svg width="849" height="207" xmlns="http://www.w3.org/2000/svg" xmlns:xlink="http://www.w3.org/1999/xlink" xml:space="preserve" overflow="hidden"><defs><clipPath id="clip0"><rect x="215" y="227" width="849" height="207"/></clipPath></defs><g clip-path="url(#clip0)" transform="translate(-215 -227)"><path d="M0.199653 235.391 17.0703 235.391 17.0703 239.484 4.79167 239.484 4.79167 245.773 16.4714 245.773 16.4714 249.866 4.79167 249.866 4.79167 256.754 17.7691 256.754 17.7691 260.847 0.199653 260.847 0.199653 235.391Z" fill="#00162F" transform="matrix(1.00061 0 0 1 215.478 227)"/><path d="M31.5452 247.47 23.0599 235.291 28.75 235.291 34.7396 244.675 40.6294 235.291 46.1198 235.291 37.7344 247.47 47.0183 260.747 41.2283 260.747 34.54 249.965 27.8516 260.747 22.3611 260.747 31.5452 247.47Z" fill="#00162F" transform="matrix(1.00061 0 0 1 215.478 227)"/><path d="M68.5808 241.38C67.6824 240.382 66.7839 239.683 65.8855 239.384 64.987 239.084 64.0886 238.885 63.29 238.885 61.9922 238.885 60.7943 239.084 59.6962 239.584 58.5981 240.083 57.6997 240.682 56.9011 241.48 56.1025 242.279 55.5035 243.277 55.1042 244.375 54.7049 245.473 54.5053 246.671 54.5053 247.969 54.5053 249.367 54.7049 250.564 55.1042 251.762 55.5035 252.96 56.1025 253.859 56.9011 254.757 57.6997 255.556 58.5981 256.255 59.6962 256.754 60.7943 257.253 61.9922 257.452 63.29 257.452 64.2883 257.452 65.2865 257.253 66.2848 256.754 67.283 256.255 68.1815 255.456 68.9801 254.358L72.6737 257.053C71.4758 258.65 70.0782 259.749 68.481 260.547 66.7839 261.246 65.0869 261.645 63.1902 261.645 61.1936 261.645 59.3968 261.346 57.7995 260.647 56.2023 259.948 54.7049 259.15 53.6068 257.952 52.5087 256.754 51.5105 255.356 50.8117 253.759 50.1129 252.162 49.8134 250.365 49.8134 248.368 49.8134 246.372 50.1129 244.475 50.8117 242.778 51.5105 241.081 52.4089 239.683 53.6068 238.485 54.8047 237.288 56.2023 236.389 57.7995 235.79 59.3968 235.191 61.2935 234.792 63.1902 234.792 64.8872 234.792 66.4844 235.091 67.9818 235.69 69.4792 236.289 70.777 237.387 72.0747 238.785L68.5808 241.38Z" fill="#00162F" transform="matrix(1.00061 0 0 1 215.478 227)"/><path d="M78.1641 235.391 95.0348 235.391 95.0348 239.484 82.7561 239.484 82.7561 245.773 94.4358 245.773 94.4358 249.866 82.7561 249.866 82.7561 256.754 95.7336 256.754 95.7336 260.847 78.264 260.847 78.264 235.391 78.1641 235.391Z" fill="#00162F" transform="matrix(1.00061 0 0 1 215.478 227)"/><path d="M102.622 235.391 107.114 235.391 107.114 256.754 117.995 256.754 117.995 260.847 102.622 260.847 102.622 235.391Z" fill="#00162F" transform="matrix(1.00061 0 0 1 215.478 227)"/><path d="M123.585 235.391 128.077 235.391 128.077 256.754 138.859 256.754 138.859 260.847 123.485 260.847 123.485 235.391 123.585 235.391Z" fill="#00162F" transform="matrix(1.00061 0 0 1 215.478 227)"/><path d="M144.449 235.391 161.32 235.391 161.32 239.484 149.041 239.484 149.041 245.773 160.721 245.773 160.721 249.866 149.041 249.866 149.041 256.754 162.018 256.754 162.018 260.847 144.549 260.847 144.549 235.391 144.449 235.391Z" fill="#00162F" transform="matrix(1.00061 0 0 1 215.478 227)"/><path d="M169.006 235.391 174.996 235.391 187.274 254.258 187.374 254.258 187.374 235.391 191.866 235.391 191.866 260.847 186.077 260.847 173.498 241.38 173.399 241.38 173.399 260.847 168.906 260.847 168.906 235.391 169.006 235.391Z" fill="#00162F" transform="matrix(1.00061 0 0 1 215.478 227)"/><path d="M217.522 241.38C216.623 240.382 215.725 239.683 214.827 239.384 213.928 239.084 213.03 238.885 212.231 238.885 210.933 238.885 209.735 239.084 208.637 239.584 207.539 240.083 206.641 240.682 205.842 241.48 205.044 242.279 204.445 243.277 204.045 244.375 203.646 245.473 203.446 246.671 203.446 247.969 203.446 249.367 203.646 250.564 204.045 251.762 204.445 252.96 205.044 253.859 205.842 254.757 206.641 255.556 207.539 256.255 208.637 256.754 209.735 257.253 210.933 257.452 212.231 257.452 213.229 257.452 214.228 257.253 215.226 256.754 216.224 256.255 217.123 255.456 217.921 254.358L221.615 257.053C220.417 258.65 219.019 259.749 217.422 260.547 215.725 261.246 214.028 261.645 212.131 261.645 210.135 261.645 208.338 261.346 206.741 260.647 205.143 260.048 203.646 259.15 202.548 257.952 201.45 256.754 200.452 255.356 199.753 253.759 199.054 252.162 198.755 250.365 198.755 248.368 198.755 246.372 199.054 244.475 199.753 242.778 200.452 241.081 201.35 239.683 202.548 238.485 203.746 237.288 205.143 236.389 206.741 235.79 208.338 235.191 210.135 234.792 212.131 234.792 213.828 234.792 215.426 235.091 216.923 235.69 218.42 236.289 219.718 237.387 221.016 238.785L217.522 241.38Z" fill="#00162F" transform="matrix(1.00061 0 0 1 215.478 227)"/><path d="M227.105 235.391 243.976 235.391 243.976 239.484 231.697 239.484 231.697 245.773 243.377 245.773 243.377 249.866 231.697 249.866 231.697 256.754 244.675 256.754 244.675 260.847 227.205 260.847 227.205 235.391 227.105 235.391Z" fill="#00162F" transform="matrix(1.00061 0 0 1 215.478 227)"/><path d="M265.039 235.391 269.531 235.391 269.531 260.847 265.039 260.847 265.039 235.391Z" fill="#00162F" transform="matrix(1.00061 0 0 1 215.478 227)"/><path d="M277.617 235.391 283.607 235.391 295.886 254.258 295.986 254.258 295.986 235.391 300.478 235.391 300.478 260.847 294.688 260.847 282.11 241.38 282.01 241.38 282.01 260.847 277.518 260.847 277.617 235.391 277.617 235.391Z" fill="#00162F" transform="matrix(1.00061 0 0 1 215.478 227)"/><path d="M322.44 235.391 329.328 235.391 336.116 253.26 343.004 235.391 349.792 235.391 349.792 260.847 345.499 260.847 345.499 239.584 345.4 239.584 337.713 260.747 334.618 260.747 326.932 239.584 326.832 239.584 326.832 260.747 322.539 260.747 322.44 235.391 322.44 235.391Z" fill="#00162F" transform="matrix(1.00061 0 0 1 215.478 227)"/><path d="M358.078 235.391 374.948 235.391 374.948 239.484 362.57 239.484 362.57 245.773 374.249 245.773 374.249 249.866 362.57 249.866 362.57 256.754 375.547 256.754 375.547 260.847 358.078 260.847 358.078 235.391Z" fill="#00162F" transform="matrix(1.00061 0 0 1 215.478 227)"/><path d="M382.535 235.391 392.518 235.391C394.215 235.391 395.812 235.69 397.409 236.189 399.006 236.689 400.304 237.487 401.502 238.585 402.7 239.683 403.698 240.981 404.397 242.578 405.096 244.176 405.495 246.072 405.495 248.169 405.495 250.365 405.096 252.261 404.297 253.859 403.499 255.456 402.401 256.754 401.103 257.852 399.805 258.95 398.308 259.649 396.71 260.148 395.113 260.647 393.516 260.946 392.019 260.946L382.535 260.946 382.535 235.391ZM390.521 256.654C391.919 256.654 393.316 256.454 394.514 256.155 395.812 255.855 396.91 255.356 397.809 254.657 398.707 253.959 399.506 253.06 400.005 251.962 400.504 250.864 400.803 249.566 400.803 247.969 400.803 246.472 400.604 245.074 400.104 243.976 399.605 242.878 399.006 241.979 398.108 241.281 397.21 240.582 396.211 240.083 395.113 239.783 393.915 239.484 392.717 239.284 391.32 239.284L387.227 239.284 387.227 256.554 390.521 256.554 390.521 256.654Z" fill="#00162F" transform="matrix(1.00061 0 0 1 215.478 227)"/><path d="M412.283 235.391 416.776 235.391 416.776 260.847 412.283 260.847 412.283 235.391Z" fill="#00162F" transform="matrix(1.00061 0 0 1 215.478 227)"/><path d="M442.331 241.38C441.433 240.382 440.534 239.683 439.636 239.384 438.737 239.084 437.839 238.885 437.04 238.885 435.743 238.885 434.545 239.084 433.447 239.584 432.348 240.083 431.45 240.682 430.651 241.48 429.853 242.279 429.254 243.277 428.855 244.375 428.455 245.473 428.256 246.671 428.256 247.969 428.256 249.367 428.455 250.564 428.855 251.762 429.254 252.96 429.853 253.859 430.651 254.757 431.45 255.556 432.348 256.255 433.447 256.754 434.545 257.253 435.743 257.452 437.04 257.452 438.039 257.452 439.037 257.253 440.035 256.754 441.033 256.255 441.932 255.456 442.73 254.358L446.424 257.053C445.226 258.65 443.828 259.749 442.231 260.547 440.534 261.246 438.837 261.645 436.94 261.645 434.944 261.645 433.147 261.346 431.55 260.647 429.953 260.048 428.455 259.15 427.357 257.952 426.259 256.754 425.261 255.356 424.562 253.759 423.863 252.162 423.564 250.365 423.564 248.368 423.564 246.372 423.863 244.475 424.562 242.778 425.261 241.081 426.159 239.683 427.357 238.485 428.555 237.288 429.953 236.389 431.55 235.79 433.147 235.191 434.944 234.792 436.94 234.792 438.638 234.792 440.235 235.091 441.732 235.69 443.23 236.289 444.527 237.387 445.825 238.785L442.331 241.38Z" fill="#00162F" transform="matrix(1.00061 0 0 1 215.478 227)"/><path d="M451.815 235.391 456.307 235.391 456.307 260.847 451.815 260.847 451.815 235.391Z" fill="#00162F" transform="matrix(1.00061 0 0 1 215.478 227)"/><path d="M464.493 235.391 470.482 235.391 482.761 254.258 482.861 254.258 482.861 235.391 487.353 235.391 487.353 260.847 481.563 260.847 468.985 241.38 468.885 241.38 468.885 260.847 464.393 260.847 464.493 235.391 464.493 235.391Z" fill="#00162F" transform="matrix(1.00061 0 0 1 215.478 227)"/><path d="M495.539 235.391 512.409 235.391 512.409 239.484 500.131 239.484 500.131 245.773 511.81 245.773 511.81 249.866 500.131 249.866 500.131 256.754 513.108 256.754 513.108 260.847 495.638 260.847 495.638 235.391 495.539 235.391Z" fill="#00162F" transform="matrix(1.00061 0 0 1 215.478 227)"/><path d="M532.574 240.781C532.075 240.083 531.476 239.584 530.677 239.284 529.879 238.985 528.981 238.785 528.182 238.785 527.683 238.785 527.184 238.885 526.684 238.985 526.185 239.084 525.786 239.284 525.387 239.584 524.987 239.883 524.688 240.182 524.388 240.582 524.189 240.981 523.989 241.48 523.989 242.079 523.989 242.978 524.289 243.577 524.888 244.076 525.487 244.575 526.185 244.974 527.084 245.274 527.982 245.573 528.981 245.972 529.979 246.272 531.077 246.571 531.975 246.971 532.874 247.57 533.772 248.169 534.471 248.867 535.07 249.766 535.669 250.664 535.968 251.862 535.968 253.36 535.968 254.757 535.669 255.955 535.17 256.953 534.671 257.952 533.972 258.85 533.173 259.449 532.275 260.148 531.376 260.647 530.178 260.946 529.08 261.246 527.882 261.446 526.585 261.446 524.987 261.446 523.49 261.146 521.993 260.647 520.495 260.148 519.297 259.249 518.199 257.952L521.593 254.657C522.192 255.456 522.891 256.155 523.789 256.654 524.688 257.153 525.686 257.353 526.684 257.353 527.184 257.353 527.783 257.253 528.282 257.153 528.781 257.053 529.28 256.754 529.679 256.554 530.079 256.354 530.478 255.855 530.677 255.456 530.977 255.057 531.077 254.458 531.077 253.959 531.077 253.06 530.777 252.261 530.178 251.762 529.579 251.263 528.881 250.864 527.982 250.465 527.084 250.165 526.086 249.766 525.087 249.466 523.989 249.167 523.091 248.768 522.192 248.169 521.294 247.669 520.595 246.871 519.996 245.972 519.397 245.074 519.098 243.876 519.098 242.379 519.098 241.081 519.397 239.883 519.896 238.985 520.395 238.086 521.094 237.188 521.993 236.589 522.891 235.99 523.889 235.491 524.987 235.191 526.086 234.892 527.283 234.692 528.481 234.692 529.779 234.692 531.077 234.892 532.375 235.291 533.672 235.69 534.77 236.389 535.769 237.288L532.574 240.781Z" fill="#00162F" transform="matrix(1.00061 0 0 1 215.478 227)"/><path d="M556.832 235.391 566.815 235.391C568.512 235.391 570.109 235.69 571.706 236.189 573.303 236.689 574.601 237.487 575.799 238.585 576.997 239.683 577.995 240.981 578.694 242.578 579.393 244.176 579.792 246.072 579.792 248.169 579.792 250.365 579.393 252.261 578.594 253.859 577.796 255.456 576.698 256.754 575.4 257.852 574.102 258.95 572.605 259.649 571.007 260.148 569.41 260.647 567.813 260.946 566.316 260.946L556.832 260.946 556.832 235.391 556.832 235.391ZM564.718 256.654C566.116 256.654 567.513 256.454 568.711 256.155 570.009 255.855 571.107 255.356 572.006 254.657 572.904 253.959 573.703 253.06 574.202 251.962 574.701 250.864 575 249.566 575 247.969 575 246.472 574.801 245.074 574.302 243.976 573.803 242.878 573.204 241.979 572.305 241.281 571.407 240.582 570.409 240.083 569.31 239.783 568.112 239.484 566.915 239.284 565.517 239.284L561.424 239.284 561.424 256.554 564.718 256.554 564.718 256.654Z" fill="#00162F" transform="matrix(1.00061 0 0 1 215.478 227)"/><path d="M586.481 235.391 603.351 235.391 603.351 239.484 591.073 239.484 591.073 245.773 602.752 245.773 602.752 249.866 591.073 249.866 591.073 256.754 604.05 256.754 604.05 260.847 586.58 260.847 586.58 235.391 586.481 235.391Z" fill="#00162F" transform="matrix(1.00061 0 0 1 215.478 227)"/><path d="M608.343 235.391 613.534 235.391 620.422 254.657 627.609 235.391 632.5 235.391 622.218 260.847 618.325 260.847 608.343 235.391Z" fill="#00162F" transform="matrix(1.00061 0 0 1 215.478 227)"/><path d="M637.791 235.391 654.662 235.391 654.662 239.484 642.383 239.484 642.383 245.773 654.063 245.773 654.063 249.866 642.383 249.866 642.383 256.754 655.361 256.754 655.361 260.847 637.891 260.847 637.891 235.391 637.791 235.391Z" fill="#00162F" transform="matrix(1.00061 0 0 1 215.478 227)"/><path d="M662.249 235.391 666.741 235.391 666.741 256.754 677.522 256.754 677.522 260.847 662.149 260.847 662.149 235.391 662.249 235.391Z" fill="#00162F" transform="matrix(1.00061 0 0 1 215.478 227)"/><path d="M681.316 248.169C681.316 246.172 681.615 244.275 682.314 242.578 683.013 240.881 683.911 239.484 685.109 238.286 686.307 237.088 687.705 236.189 689.302 235.59 690.899 234.992 692.796 234.592 694.692 234.592 696.689 234.592 698.486 234.892 700.183 235.491 701.88 236.09 703.278 236.988 704.475 238.186 705.673 239.384 706.572 240.781 707.271 242.379 707.969 243.976 708.269 245.873 708.269 247.869 708.269 249.866 707.969 251.663 707.271 253.26 706.572 254.857 705.673 256.255 704.475 257.452 703.278 258.65 701.88 259.549 700.183 260.248 698.486 260.946 696.689 261.246 694.692 261.246 692.696 261.246 690.899 260.946 689.302 260.248 687.705 259.549 686.207 258.75 685.109 257.552 684.011 256.354 683.013 254.957 682.314 253.36 681.615 251.962 681.316 250.165 681.316 248.169ZM686.008 247.969C686.008 249.367 686.207 250.564 686.606 251.762 687.006 252.96 687.605 253.859 688.403 254.757 689.202 255.556 690.1 256.255 691.199 256.754 692.297 257.253 693.495 257.452 694.792 257.452 696.09 257.452 697.288 257.253 698.386 256.754 699.484 256.255 700.383 255.656 701.181 254.757 701.98 253.959 702.579 252.96 702.978 251.762 703.377 250.564 703.577 249.367 703.577 247.969 703.577 246.671 703.377 245.473 702.978 244.375 702.579 243.277 701.98 242.279 701.181 241.48 700.383 240.682 699.484 239.983 698.386 239.584 697.288 239.084 696.09 238.885 694.792 238.885 693.495 238.885 692.297 239.084 691.199 239.584 690.1 240.083 689.202 240.682 688.403 241.48 687.605 242.279 687.006 243.277 686.606 244.375 686.307 245.473 686.008 246.571 686.008 247.969Z" fill="#00162F" transform="matrix(1.00061 0 0 1 215.478 227)"/><path d="M715.057 235.391 723.642 235.391C724.84 235.391 726.038 235.491 727.136 235.79 728.234 235.99 729.232 236.389 730.131 236.988 731.029 237.587 731.728 238.286 732.227 239.284 732.726 240.182 733.026 241.38 733.026 242.778 733.026 244.375 732.726 245.673 732.227 246.671 731.628 247.669 730.929 248.368 730.031 248.967 729.133 249.566 728.034 249.866 726.737 250.065 725.539 250.265 724.241 250.365 722.843 250.365L719.649 250.365 719.649 260.847 715.157 260.847 715.057 235.391 715.057 235.391ZM722.344 246.472C722.943 246.472 723.642 246.472 724.341 246.372 725.04 246.372 725.639 246.172 726.238 245.972 726.837 245.773 727.336 245.373 727.635 244.874 728.034 244.375 728.234 243.676 728.234 242.878 728.234 242.079 728.034 241.48 727.735 240.981 727.436 240.482 726.936 240.182 726.437 239.883 725.938 239.584 725.339 239.484 724.64 239.384 723.942 239.284 723.343 239.284 722.744 239.284L719.549 239.284 719.549 246.472 722.344 246.472Z" fill="#00162F" transform="matrix(1.00061 0 0 1 215.478 227)"/><path d="M738.916 235.391 745.804 235.391 752.592 253.26 759.48 235.391 766.268 235.391 766.268 260.847 761.975 260.847 761.975 239.584 761.876 239.584 754.189 260.747 750.995 260.747 743.308 239.584 743.208 239.584 743.208 260.747 738.916 260.747 738.916 235.391Z" fill="#00162F" transform="matrix(1.00061 0 0 1 215.478 227)"/><path d="M774.554 235.391 791.424 235.391 791.424 239.484 779.146 239.484 779.146 245.773 790.825 245.773 790.825 249.866 779.146 249.866 779.146 256.754 792.123 256.754 792.123 260.847 774.653 260.847 774.554 235.391 774.554 235.391Z" fill="#00162F" transform="matrix(1.00061 0 0 1 215.478 227)"/><path d="M799.011 235.391 805.001 235.391 817.279 254.258 817.379 254.258 817.379 235.391 821.871 235.391 821.871 260.847 816.081 260.847 803.503 241.38 803.403 241.38 803.403 260.847 798.911 260.847 799.011 235.391 799.011 235.391Z" fill="#00162F" transform="matrix(1.00061 0 0 1 215.478 227)"/><path d="M835.248 239.484 827.462 239.484 827.462 235.391 847.627 235.391 847.627 239.484 839.84 239.484 839.84 260.847 835.348 260.847 835.348 239.484 835.248 239.484Z" fill="#00162F" transform="matrix(1.00061 0 0 1 215.478 227)"/><path d="M725.14 3.19445C708.668 5.78994 693.694 13.8759 683.113 25.9549 672.431 38.0339 666.541 53.7066 666.541 69.8785L666.541 120.99C666.541 134.766 661.949 147.444 653.364 157.726 644.779 168.008 633 174.696 619.224 177.292L618.924 177.392 618.924 187.674 619.423 187.574C635.595 184.779 650.27 176.593 660.751 164.514 671.233 152.435 676.624 136.962 676.624 120.99L676.624 69.7787C676.624 55.803 681.615 42.9254 690.4 32.6433 699.185 22.3611 711.264 15.6728 725.239 13.2769L725.539 13.1771 725.539 2.99479 725.14 3.19445Z" fill="#F7942E" transform="matrix(1.00061 0 0 1 215.478 227)"/><path d="M771.758 177.591C737.917 177.591 710.365 150.039 710.365 116.198 710.365 82.1572 737.917 54.5053 771.758 54.5053 781.741 54.5053 791.324 56.9011 800.109 61.4931L807.396 53.8065C796.416 47.3177 784.936 44.323 771.758 44.323 732.327 44.323 700.183 76.4671 700.183 115.899 700.183 155.53 732.327 187.774 771.758 187.774 784.037 187.774 796.615 184.379 807.496 178.39L800.209 170.803C791.524 175.195 781.941 177.591 771.758 177.591Z" fill="#F7942E" transform="matrix(1.00061 0 0 1 215.478 227)"/><path d="M310.76 2.69531C331.624 2.69531 352.088 9.78299 368.26 22.6606L360.973 30.6467C345 18.5677 329.527 13.1771 310.76 13.1771 265.538 13.1771 228.702 50.1129 228.702 95.5339 228.702 140.556 265.538 177.192 310.76 177.192 329.328 177.192 345.4 171.702 361.272 159.822L368.36 167.708C352.188 180.586 331.723 187.674 310.76 187.674 259.749 187.674 218.32 146.246 218.32 95.2345 218.32 44.1233 259.749 2.69531 310.76 2.69531" fill="#00162F" transform="matrix(1.00061 0 0 1 215.478 227)"/><path d="M594.167 58.099 594.167 47.9167 546.051 47.9167 546.051 19.2665 535.968 19.2665 535.968 121.589C535.968 154.432 560.226 182.183 593.568 187.474L594.167 187.574 594.167 177.192 593.768 177.092C565.717 172.3 546.051 149.44 546.051 121.589L546.051 58.099 594.167 58.099Z" fill="#00162F" transform="matrix(1.00061 0 0 1 215.478 227)"/><path d="M503.026 58.1988 503.026 78.0643C489.15 55.6033 469.184 44.323 443.828 44.323 403.898 44.323 373.75 74.8699 373.75 115.399 373.75 155.929 404.497 187.774 443.828 187.774 468.486 187.774 486.854 177.491 503.026 154.531L503.026 184.28 513.108 184.28 513.108 58.1988 503.026 58.1988ZM443.329 53.2075C476.671 53.2075 502.826 81.4584 502.826 117.496 502.826 150.239 475.573 178.989 444.627 178.989 411.385 178.989 384.432 150.838 384.432 116.198 384.332 80.8594 410.187 53.2075 443.329 53.2075Z" fill="#00162F" transform="matrix(1.00061 0 0 1 215.478 227)"/><path d="M93.2379 17.4696C88.3464 17.4696 84.3534 13.4766 84.3534 8.58508 84.3534 3.69358 88.3464-0.299479 93.2379-0.299479 98.1294-0.299479 102.122 3.69358 102.122 8.58508 102.122 13.4766 98.1294 17.4696 93.2379 17.4696" fill="#F7942E" transform="matrix(1.00061 0 0 1 215.478 227)"/><path d="M93.2379 101.324C88.3464 101.324 84.3534 97.3308 84.3534 92.4393 84.3534 87.5478 88.3464 83.5548 93.2379 83.5548 98.1294 83.5548 102.122 87.5478 102.122 92.4393 102.122 97.3308 98.1294 101.324 93.2379 101.324" fill="#00162F" transform="matrix(1.00061 0 0 1 215.478 227)"/><path d="M93.2379 185.577C88.3464 185.577 84.3534 181.584 84.3534 176.693 84.3534 171.801 88.3464 167.808 93.2379 167.808 98.1294 167.808 102.122 171.801 102.122 176.693 102.122 181.584 98.1294 185.577 93.2379 185.577" fill="#F7942E" transform="matrix(1.00061 0 0 1 215.478 227)"/><path d="M168.108 92.639C168.108 87.7475 172.101 83.7544 176.992 83.7544 181.884 83.7544 185.877 87.7475 185.877 92.639 185.877 97.5305 181.884 101.524 176.992 101.524 172.101 101.524 168.108 97.6303 168.108 92.639" fill="#F7942E" transform="matrix(1.00061 0 0 1 215.478 227)"/><path d="M0.0998265 92.639C0.0998265 87.8473 4.09289 83.8542 8.98438 83.8542 13.8759 83.8542 17.8689 87.8473 17.8689 92.7388 17.8689 97.6303 13.8759 101.623 8.98438 101.623 4.09289 101.623 0.0998265 97.6303 0.0998265 92.639" fill="#F7942E" transform="matrix(1.00061 0 0 1 215.478 227)"/><path d="M830.057 44.2231 840.04 44.2231 840.04 186.775 830.057 186.775Z" fill="#F7942E" transform="matrix(1.00061 0 0 1 215.478 227)"/><path d="M843.534 8.58508C843.534 13.3265 839.735 17.1702 835.048 17.1702 830.362 17.1702 826.563 13.3265 826.563 8.58508 826.563 3.84367 830.362 3.80808e-07 835.048 3.80808e-07 839.735 3.80808e-07 843.534 3.84367 843.534 8.58508Z" fill="#00162F" transform="matrix(1.00061 0 0 1 215.478 227)"/></g></svg>